<mxfile host="app.diagrams.net" modified="2024-01-03T21:09:41.236Z" agent="Mozilla/5.0 (Windows NT 10.0; Win64; x64) AppleWebKit/537.36 (KHTML, like Gecko) Chrome/120.0.0.0 Safari/537.36" etag="4K3i-zh6gRa5B1ICay_C" version="22.1.16" type="device">
  <diagram id="C5RBs43oDa-KdzZeNtuy" name="Page-1">
    <mxGraphModel dx="894" dy="566" grid="0" gridSize="10" guides="1" tooltips="1" connect="1" arrows="1" fold="1" page="1" pageScale="1" pageWidth="827" pageHeight="1169" background="#000000" math="0" shadow="0">
      <root>
        <mxCell id="WIyWlLk6GJQsqaUBKTNV-0" />
        <mxCell id="WIyWlLk6GJQsqaUBKTNV-1" parent="WIyWlLk6GJQsqaUBKTNV-0" />
        <mxCell id="V3E4LzRB87KwqU8mjEUV-12" style="edgeStyle=orthogonalEdgeStyle;rounded=0;orthogonalLoop=1;jettySize=auto;html=1;exitX=1;exitY=0.5;exitDx=0;exitDy=0;entryX=0;entryY=0.5;entryDx=0;entryDy=0;strokeColor=#EEEEEE;fontColor=#FFFFFF;" edge="1" parent="WIyWlLk6GJQsqaUBKTNV-1" source="V3E4LzRB87KwqU8mjEUV-3" target="V3E4LzRB87KwqU8mjEUV-6">
          <mxGeometry relative="1" as="geometry" />
        </mxCell>
        <mxCell id="V3E4LzRB87KwqU8mjEUV-3" value="用戶" style="whiteSpace=wrap;html=1;labelBackgroundColor=none;fillColor=#B1DDF0;strokeColor=#BAC8D3;fontColor=#182E3E;" vertex="1" parent="WIyWlLk6GJQsqaUBKTNV-1">
          <mxGeometry x="109" y="256.5" width="83" height="75" as="geometry" />
        </mxCell>
        <mxCell id="V3E4LzRB87KwqU8mjEUV-4" value="&lt;font color=&quot;#ffffff&quot;&gt;用戶名&lt;/font&gt;" style="text;html=1;align=center;verticalAlign=middle;resizable=0;points=[];autosize=1;strokeColor=none;fillColor=none;fontColor=#182E3E;" vertex="1" parent="WIyWlLk6GJQsqaUBKTNV-1">
          <mxGeometry x="210" y="259" width="54" height="26" as="geometry" />
        </mxCell>
        <mxCell id="V3E4LzRB87KwqU8mjEUV-5" value="&lt;font color=&quot;#ffffff&quot;&gt;密碼&lt;/font&gt;" style="text;html=1;align=center;verticalAlign=middle;resizable=0;points=[];autosize=1;strokeColor=none;fillColor=none;fontColor=#182E3E;" vertex="1" parent="WIyWlLk6GJQsqaUBKTNV-1">
          <mxGeometry x="216" y="306" width="42" height="26" as="geometry" />
        </mxCell>
        <mxCell id="V3E4LzRB87KwqU8mjEUV-11" style="edgeStyle=orthogonalEdgeStyle;rounded=0;orthogonalLoop=1;jettySize=auto;html=1;exitX=1;exitY=0;exitDx=0;exitDy=0;entryX=0;entryY=0;entryDx=0;entryDy=0;strokeColor=#EEEEEE;fontColor=#FFFFFF;" edge="1" parent="WIyWlLk6GJQsqaUBKTNV-1" source="V3E4LzRB87KwqU8mjEUV-6" target="V3E4LzRB87KwqU8mjEUV-7">
          <mxGeometry relative="1" as="geometry" />
        </mxCell>
        <mxCell id="V3E4LzRB87KwqU8mjEUV-6" value="登錄" style="ellipse;whiteSpace=wrap;html=1;strokeColor=#BAC8D3;fontColor=#182E3E;fillColor=#B1DDF0;" vertex="1" parent="WIyWlLk6GJQsqaUBKTNV-1">
          <mxGeometry x="292" y="254" width="80" height="80" as="geometry" />
        </mxCell>
        <mxCell id="V3E4LzRB87KwqU8mjEUV-10" style="edgeStyle=orthogonalEdgeStyle;rounded=0;orthogonalLoop=1;jettySize=auto;html=1;exitX=0;exitY=1;exitDx=0;exitDy=0;entryX=1;entryY=1;entryDx=0;entryDy=0;strokeColor=#EEEEEE;fontColor=#FFFFFF;" edge="1" parent="WIyWlLk6GJQsqaUBKTNV-1" source="V3E4LzRB87KwqU8mjEUV-7" target="V3E4LzRB87KwqU8mjEUV-6">
          <mxGeometry relative="1" as="geometry" />
        </mxCell>
        <mxCell id="V3E4LzRB87KwqU8mjEUV-7" value="個人訊息管理系統" style="ellipse;whiteSpace=wrap;html=1;strokeColor=#BAC8D3;fontColor=#182E3E;fillColor=#B1DDF0;" vertex="1" parent="WIyWlLk6GJQsqaUBKTNV-1">
          <mxGeometry x="478" y="254" width="168" height="80" as="geometry" />
        </mxCell>
        <mxCell id="V3E4LzRB87KwqU8mjEUV-8" value="&lt;font color=&quot;#ffffff&quot;&gt;查詢&lt;/font&gt;" style="text;html=1;align=center;verticalAlign=middle;resizable=0;points=[];autosize=1;strokeColor=none;fillColor=none;fontColor=#182E3E;" vertex="1" parent="WIyWlLk6GJQsqaUBKTNV-1">
          <mxGeometry x="401" y="323" width="42" height="26" as="geometry" />
        </mxCell>
        <mxCell id="V3E4LzRB87KwqU8mjEUV-9" value="&lt;font color=&quot;#ffffff&quot;&gt;管理&lt;/font&gt;" style="text;html=1;align=center;verticalAlign=middle;resizable=0;points=[];autosize=1;strokeColor=none;fillColor=none;fontColor=#182E3E;" vertex="1" parent="WIyWlLk6GJQsqaUBKTNV-1">
          <mxGeometry x="401" y="238" width="42" height="26" as="geometry" />
        </mxCell>
      </root>
    </mxGraphModel>
  </diagram>
</mxfile>
